<svg width="760" height="960" viewBox="0 0 760 960" fill="none" xmlns="http://www.w3.org/2000/svg">
  <defs>
    <linearGradient id="bg" x1="90" y1="80" x2="650" y2="860" gradientUnits="userSpaceOnUse">
      <stop stop-color="#FFF7EE"/>
      <stop offset="1" stop-color="#F7FBFF"/>
    </linearGradient>
    <linearGradient id="desk" x1="180" y1="550" x2="570" y2="860" gradientUnits="userSpaceOnUse">
      <stop stop-color="#F4C798"/>
      <stop offset="1" stop-color="#D98D61"/>
    </linearGradient>
    <linearGradient id="bag" x1="120" y1="520" x2="280" y2="780" gradientUnits="userSpaceOnUse">
      <stop stop-color="#68C7CF"/>
      <stop offset="1" stop-color="#2C8DA0"/>
    </linearGradient>
  </defs>
  <rect width="760" height="960" rx="44" fill="url(#bg)"/>
  <circle cx="150" cy="146" r="72" fill="#FFE2A9"/>
  <circle cx="610" cy="178" r="98" fill="#E2D6FF"/>
  <circle cx="570" cy="760" r="112" fill="#D9F3F0"/>
  <rect x="132" y="502" width="506" height="292" rx="42" fill="url(#desk)"/>
  <rect x="140" y="520" width="490" height="26" rx="13" fill="#F6DFC5" opacity="0.72"/>
  <rect x="156" y="794" width="52" height="84" rx="24" fill="#C6784C"/>
  <rect x="552" y="794" width="52" height="84" rx="24" fill="#C6784C"/>
  <rect x="214" y="454" width="154" height="118" rx="18" transform="rotate(-8 214 454)" fill="#FFFDF9" stroke="#E7D8C9" stroke-width="4"/>
  <line x1="248" y1="488" x2="334" y2="476" stroke="#F2B7AE" stroke-width="10" stroke-linecap="round"/>
  <line x1="242" y1="523" x2="329" y2="511" stroke="#D8E7FA" stroke-width="10" stroke-linecap="round"/>
  <line x1="236" y1="556" x2="322" y2="544" stroke="#DDE7C3" stroke-width="10" stroke-linecap="round"/>
  <rect x="384" y="436" width="138" height="104" rx="18" transform="rotate(7 384 436)" fill="#FFFFFF" stroke="#D9E1EB" stroke-width="4"/>
  <rect x="410" y="468" width="78" height="52" rx="14" fill="#FFE7B3"/>
  <circle cx="449" cy="494" r="14" fill="#F7B955"/>
  <rect x="512" y="402" width="68" height="138" rx="18" fill="#F7E4BF"/>
  <rect x="526" y="432" width="12" height="62" rx="6" fill="#EF887B"/>
  <rect x="548" y="420" width="12" height="74" rx="6" fill="#67C5CC"/>
  <rect x="570" y="442" width="12" height="54" rx="6" fill="#86C05F"/>
  <path d="M548 400C548 360 574 334 614 334C654 334 680 360 680 400V422H648V404C648 380 634 366 614 366C594 366 580 380 580 404V422H548V400Z" fill="#2E486B"/>
  <rect x="556" y="416" width="118" height="140" rx="28" fill="url(#bag)"/>
  <rect x="582" y="452" width="68" height="52" rx="18" fill="#8ADBE2" opacity="0.68"/>
  <circle cx="212" cy="306" r="48" fill="#FFD2B8"/>
  <path d="M154 404C154 355 180 330 212 330C244 330 270 355 270 404V492H154V404Z" fill="#F07A70"/>
  <rect x="182" y="354" width="60" height="112" rx="30" fill="#FFF0EB" opacity="0.26"/>
  <circle cx="344" cy="330" r="40" fill="#FFD9C7"/>
  <path d="M294 408C294 370 316 348 344 348C372 348 394 370 394 408V492H294V408Z" fill="#7CB562"/>
  <path d="M256 598C256 562 276 536 304 536C332 536 352 562 352 598V646H256V598Z" fill="#405B7B"/>
  <circle cx="304" cy="522" r="34" fill="#FFDCC5"/>
  <path d="M332 610L388 558" stroke="#FFDCC5" stroke-width="18" stroke-linecap="round"/>
  <path d="M388 558L428 586" stroke="#FFDCC5" stroke-width="18" stroke-linecap="round"/>
  <circle cx="446" cy="600" r="30" fill="#FFD7BF"/>
  <path d="M402 676C402 640 422 616 446 616C470 616 490 640 490 676V730H402V676Z" fill="#8C73D4"/>
  <rect x="420" y="638" width="52" height="72" rx="20" fill="#FFFFFF" opacity="0.2"/>
  <path d="M338 610L300 676" stroke="#FFDCC5" stroke-width="18" stroke-linecap="round"/>
  <path d="M484 610L544 652" stroke="#FFD7BF" stroke-width="18" stroke-linecap="round"/>
  <circle cx="111" cy="754" r="28" fill="#FFD56A"/>
  <circle cx="666" cy="300" r="18" fill="#6FD3D9"/>
  <circle cx="626" cy="272" r="10" fill="#F68C80"/>
</svg>
