<svg width="760" height="900" viewBox="0 0 760 900" fill="none" xmlns="http://www.w3.org/2000/svg">
  <defs>
    <linearGradient id="wall" x1="96" y1="94" x2="644" y2="820" gradientUnits="userSpaceOnUse">
      <stop stop-color="#FFF8F0"/>
      <stop offset="1" stop-color="#F5FBFF"/>
    </linearGradient>
    <linearGradient id="board" x1="160" y1="140" x2="590" y2="734" gradientUnits="userSpaceOnUse">
      <stop stop-color="#C99A64"/>
      <stop offset="1" stop-color="#A96C39"/>
    </linearGradient>
  </defs>
  <rect width="760" height="900" rx="44" fill="url(#wall)"/>
  <circle cx="126" cy="146" r="74" fill="#DFF2F8"/>
  <circle cx="608" cy="164" r="86" fill="#FFE1B1"/>
  <rect x="116" y="116" width="528" height="656" rx="34" fill="url(#board)"/>
  <rect x="146" y="148" width="468" height="592" rx="24" fill="#D5A56F"/>
  <g transform="rotate(-6 212 212)">
    <rect x="212" y="212" width="188" height="154" rx="20" fill="#FFFDF9"/>
    <circle cx="244" cy="236" r="11" fill="#F07A70"/>
    <rect x="246" y="270" width="108" height="18" rx="9" fill="#F7D06D"/>
    <rect x="246" y="304" width="132" height="14" rx="7" fill="#D8E6FA"/>
    <rect x="246" y="332" width="122" height="14" rx="7" fill="#DDE8C4"/>
  </g>
  <g transform="rotate(7 426 196)">
    <rect x="426" y="196" width="144" height="188" rx="20" fill="#FFFFFF"/>
    <circle cx="548" cy="222" r="11" fill="#63C6CE"/>
    <rect x="454" y="242" width="88" height="88" rx="22" fill="#F3E6C5"/>
    <rect x="470" y="266" width="54" height="14" rx="7" fill="#F0A08B"/>
    <rect x="462" y="294" width="68" height="14" rx="7" fill="#A8BEE4"/>
    <rect x="452" y="340" width="92" height="12" rx="6" fill="#E3E9F0"/>
  </g>
  <g transform="rotate(-3 200 424)">
    <rect x="200" y="424" width="170" height="150" rx="20" fill="#FFF2C7"/>
    <circle cx="224" cy="448" r="10" fill="#8A74D6"/>
    <rect x="232" y="474" width="94" height="18" rx="9" fill="#F49B84"/>
    <rect x="232" y="508" width="118" height="14" rx="7" fill="#FFFFFF"/>
    <rect x="232" y="536" width="104" height="14" rx="7" fill="#FFFFFF"/>
  </g>
  <g transform="rotate(5 410 448)">
    <rect x="410" y="448" width="148" height="176" rx="20" fill="#F7FAFF"/>
    <circle cx="532" cy="472" r="10" fill="#F0C553"/>
    <rect x="438" y="492" width="92" height="76" rx="20" fill="#DDF4F6"/>
    <circle cx="472" cy="530" r="20" fill="#63C6CE"/>
    <path d="M468 528L478 538L498 516" stroke="#FFFFFF" stroke-width="8" stroke-linecap="round" stroke-linejoin="round"/>
    <rect x="438" y="582" width="90" height="12" rx="6" fill="#D8E6FA"/>
    <rect x="438" y="606" width="74" height="12" rx="6" fill="#E6EDCE"/>
  </g>
  <rect x="150" y="662" width="464" height="34" rx="17" fill="#B57D46" opacity="0.72"/>
  <path d="M164 798C164 760 186 734 222 734H538C574 734 596 760 596 798V836H164V798Z" fill="#F4C89B"/>
  <rect x="228" y="738" width="42" height="84" rx="21" fill="#B06F3D"/>
  <rect x="490" y="738" width="42" height="84" rx="21" fill="#B06F3D"/>
  <circle cx="144" cy="670" r="18" fill="#EF877B"/>
  <circle cx="604" cy="678" r="18" fill="#67C6CD"/>
  <circle cx="396" cy="94" r="28" fill="#8A74D6"/>
</svg>
